<svg width="101" height="24" viewBox="0 0 101 24" fill="none" xmlns="http://www.w3.org/2000/svg">
<g clip-path="url(#clip0_1613_4733)">
<path d="M72.373 5.5H77.4127C78.6596 5.5 79.6467 5.9 80.3221 6.6C80.8417 7.15 81.1014 7.95 81.1014 8.8C81.1014 10.95 79.8545 12.2 77.2048 12.2H73.9317V17.1H72.425L72.373 5.5ZM73.9317 11.05H77.1009C78.8154 11.05 79.6467 10.2 79.6467 8.9C79.6467 7.5 78.7635 6.75 77.2048 6.75H73.9317V11.05ZM82.2964 5.5H83.6472V17.15H82.2964V5.5ZM90.765 15.95C90.2455 16.6 89.3622 17.3 87.8556 17.3C86.193 17.3 84.8941 16.55 84.8941 14.95C84.8941 12.95 86.5047 12.55 88.6868 12.25C89.9337 12.05 90.765 11.95 90.765 11.05C90.765 10.1 90.0896 9.6 88.7907 9.6C87.388 9.6 86.6606 10.15 86.6086 11.45H85.2578C85.3098 9.8 86.4008 8.6 88.7388 8.6C90.6092 8.6 91.96 9.25 91.96 11.3V15.3C91.96 15.95 92.1158 16.35 92.8952 16.2H92.9471V17.15C92.7913 17.2 92.5315 17.3 92.2198 17.3C91.3885 17.25 90.9209 16.8 90.765 15.95ZM90.817 14.05V12.6C90.3494 12.9 89.5701 13.1 88.8427 13.2C87.4919 13.45 86.4008 13.7 86.4008 14.9C86.4008 16 87.336 16.25 88.2192 16.25C89.9857 16.3 90.817 15 90.817 14.05ZM93.5706 19.75V18.55H93.6225C93.8303 18.65 94.0901 18.75 94.5577 18.75C95.1292 18.75 95.5449 18.55 95.8566 17.75L96.1683 16.9L92.7913 8.7H94.2979L96.3761 13.95C96.6359 14.65 96.9476 15.6 96.9476 15.6H96.9996C96.9996 15.6 97.3113 14.65 97.5711 13.95L99.5454 8.7H101L97.2594 17.8C96.584 19.55 95.8566 19.9 94.8175 19.9C94.2979 19.9 93.9343 19.9 93.5706 19.75Z" fill="white"/>
<path d="M22.0808 16.8V5.6L12.0015 0V4.3L15.9501 6.5C16.106 6.55 16.106 6.8 15.9501 6.9L11.2742 9.5C11.1183 9.55 10.9624 9.55 10.8585 9.5L6.18261 6.9C6.02675 6.85 6.02675 6.6 6.18261 6.5L10.1312 4.3V0L0 5.6V16.75L3.84465 14.6V10.25C3.84465 10.1 4.05247 10 4.15638 10.05L8.8323 12.65C8.98817 12.7 9.04012 12.85 9.04012 13.05V18.25C9.04012 18.4 8.8323 18.5 8.72839 18.45L4.77984 16.25L0.935185 18.4L11.0144 24L21.0417 18.4L17.197 16.25L13.2485 18.5C13.0926 18.6 12.9367 18.45 12.9367 18.3V13.1C12.9367 12.95 13.0406 12.8 13.1445 12.7L17.8205 10.1C17.9763 10 18.1322 10.15 18.1322 10.3V14.65L22.0808 16.8Z" fill="white"/>
<path d="M11.0664 24.0001L21.0937 18.4001L17.249 16.2501L13.3005 18.5001C13.1446 18.6001 12.9887 18.4501 12.9887 18.3001V13.1001C12.9887 12.9501 13.0926 12.8001 13.1966 12.7001L17.8725 10.1001C18.0283 10.0001 18.1842 10.1501 18.1842 10.3001V14.6501L22.0289 16.8001V5.6001L11.0664 11.7501V24.0001Z" fill="white"/>
<path d="M8.78035 18.4501L4.83179 16.2501L0.98714 18.4001L11.0144 24.0001V11.7001L0 5.6001V16.7501L3.84465 14.6001V10.2501C3.84465 10.1001 4.05247 10.0001 4.15638 10.0501L8.8323 12.6501C8.98817 12.7001 9.04012 12.8501 9.04012 13.0501V18.2501C9.14403 18.4001 8.93621 18.5001 8.78035 18.4501Z" fill="white"/>
<path d="M27.8477 13.1V6.3H30.8092V13.2C30.8092 14.3 31.3807 15.1 32.8873 15.1C34.2382 15.1 34.9136 14.3 34.9136 13.15V6.3H37.875V13.1C37.875 15.75 36.2124 17.4 32.8873 17.4C29.4583 17.4 27.8477 15.8 27.8477 13.1ZM39.3817 8.95H41.9794V10.05H42.0833C42.7068 9.15 43.5381 8.7 44.733 8.7C46.6034 8.7 47.6944 10 47.6944 11.85V17.2H44.9928V12.4C44.9928 11.55 44.5252 10.95 43.642 10.95C42.7587 10.95 42.1353 11.7 42.1353 12.65V17.2H39.4856V8.95H39.3817ZM49.0972 5.7H51.7989V7.8H49.0972V5.7ZM49.0972 8.95H51.7989V17.2H49.0972V8.95ZM53.981 15V11.05H52.838V8.9H53.981V6.3H56.6307V8.9H58.1893V11.05H56.6307V14.45C56.6307 15.1 56.9943 15.25 57.6178 15.25C57.8256 15.25 58.1373 15.2 58.1893 15.2V17.1C57.9815 17.15 57.41 17.25 56.6826 17.25C55.072 17.25 53.981 16.75 53.981 15ZM59.8519 17.85H60.787C61.5664 17.85 61.93 17.55 61.93 17C61.93 16.65 61.7742 16.15 61.4105 15.3L58.8647 8.95H61.7742L62.9172 12.45C63.177 13.25 63.4367 14.35 63.4367 14.35H63.4887C63.4887 14.35 63.6965 13.25 64.0082 12.45L65.1512 8.95H67.8529L64.8915 17.3C64.216 19.25 63.3848 19.9 61.6703 19.9H59.9038L59.8519 17.85ZM12.0015 0V4.3L15.9501 6.5C16.106 6.55 16.106 6.8 15.9501 6.9L11.2742 9.5C11.1183 9.55 10.9624 9.55 10.8585 9.5L6.18261 6.9C6.02675 6.85 6.02675 6.6 6.18261 6.5L10.1312 4.3V0L0 5.6L11.0664 11.75L22.1327 5.6L12.0015 0Z" fill="white"/>
</g>
<defs>
<clipPath id="clip0_1613_4733">
<rect width="101" height="24" fill="white"/>
</clipPath>
</defs>
</svg>
