<svg id="Layer_1" data-name="Layer 1" xmlns="http://www.w3.org/2000/svg" viewBox="0 0 64 64"><rect x="7.68477" y="42.37195" width="10" height="17.60229" rx="1" transform="translate(39.90013 6.01877) rotate(45)" style="fill: rgb(255, 255, 255);" id="id_101"></rect><rect x="18.32232" y="40.53554" width="4" height="5.99996" transform="translate(-24.83199 27.12131) rotate(-45)" style="fill: rgb(255, 255, 255);" id="id_102"></rect><circle cx="38" cy="25.85786" r="23" style="fill: rgb(255, 255, 255);" id="id_103"></circle><circle cx="38" cy="25.85786" r="18" style="fill: rgb(255, 255, 255);" id="id_104"></circle><path d="M46,25.19876a7.99358,7.99358,0,0,0-15.96067-.82333A8.27141,8.27141,0,0,0,32.85624,31.469,3.30684,3.30684,0,0,1,34,33.97537V36a3,3,0,0,0,3,3h2a3,3,0,0,0,3-3V33.97532a3.26822,3.26822,0,0,1,1.12221-2.4878A8.24853,8.24853,0,0,0,46,25.19876Z" style="fill: rgb(253, 255, 189);" id="id_105"></path><path d="M33.83533,33A3.30037,3.30037,0,0,1,34,33.97534V36a3,3,0,0,0,3,3h2a3,3,0,0,0,3-3V33.97528A3.34868,3.34868,0,0,1,42.16205,33Z" style="fill: rgb(255, 255, 255);" id="id_106"></path><path d="M29.044,24.28027a9.31547,9.31547,0,0,0,3.16015,7.94678A2.30215,2.30215,0,0,1,33,33.97559V36a4.00458,4.00458,0,0,0,4,4h2a4.00458,4.00458,0,0,0,4-4V33.9751a2.25842,2.25842,0,0,1,.772-1.72754A9.322,9.322,0,0,0,43.91943,18.269a8.80272,8.80272,0,0,0-6.94482-2.21093A9.11064,9.11064,0,0,0,29.044,24.28027ZM35,34h6v1H35Zm4,4H37a1.99313,1.99313,0,0,1-1.72186-1h5.44372A1.99313,1.99313,0,0,1,39,38ZM37.2002,18.04541a7.1015,7.1015,0,0,1,.80468-.0459,6.82261,6.82261,0,0,1,4.582,1.76123,7.32131,7.32131,0,0,1-.11474,10.96631A4.14953,4.14953,0,0,0,41.48987,32H39V30a.99831.99831,0,0,0-.3999-.7998L35.16553,26.624A.41625.41625,0,0,1,35,26.293v-.87891a.43.43,0,0,1,.707-.293l.58594.58594a2.47187,2.47187,0,0,0,3.41406,0l.58594-.58594a.4299.4299,0,0,1,.707.293V26.293a.417.417,0,0,1-.166.33154L39.3999,27.7002l1.2002,1.5996,1.43359-1.07519A2.42543,2.42543,0,0,0,43,26.293v-.87891a2.4141,2.4141,0,0,0-4.12109-1.707L38.293,24.293a.41555.41555,0,0,1-.58594,0l-.58594-.58594A2.4141,2.4141,0,0,0,33,25.41406V26.293a2.42474,2.42474,0,0,0,.96582,1.93115L37,30.5V32H34.50446a4.26211,4.26211,0,0,0-.99567-1.28857,7.315,7.315,0,0,1-2.47363-6.24122A7.19163,7.19163,0,0,1,37.2002,18.04541Z" id="id_107" style="fill: rgb(0, 0, 0);"></path><rect x="37" y="12" width="2" height="3" id="id_108"></rect><rect x="48" y="24" width="3" height="2" id="id_109"></rect><rect x="25" y="24" width="3" height="2" id="id_110"></rect><rect x="28.86827" y="15.36832" width="1.99979" height="2.99968" transform="translate(-3.17941 26.06055) rotate(-45)" id="id_111"></rect><rect x="44.632" y="15.86827" width="2.99968" height="1.99979" transform="translate(1.58411 37.5607) rotate(-45)" id="id_112"></rect><path d="M38,44.84863A18.99072,18.99072,0,1,0,24.56494,39.293,18.94,18.94,0,0,0,38,44.84863ZM25.979,13.83691a17.00026,17.00026,0,1,1,0,24.042A16.94514,16.94514,0,0,1,25.979,13.83691Z" id="id_113" style="fill: rgb(0, 0, 0);"></path><path d="M8.583,60.93213a2.00282,2.00282,0,0,0,2.82812,0L22.44336,49.89941a1.99926,1.99926,0,0,0,0-2.82812l1.67-1.67a24,24,0,1,0-5.6568-5.65668l-1.66973,1.66974-.00074-.00074a2.00311,2.00311,0,0,0-2.82763.00049L2.92529,52.44727a2.00266,2.00266,0,0,0,.00049,2.82763ZM22.44336,10.30127a22.00024,22.00024,0,1,1,0,31.11279A21.93148,21.93148,0,0,1,22.44336,10.30127ZM19.68689,41.34241c.42859.50628.86511,1.00842,1.34241,1.48571.47747.47748.97973.91413,1.4862,1.3429l-1.48614,1.48615-2.82849-2.82874Zm-4.31433,1.48571,5.65674,5.65723L9.998,59.51855,4.33984,53.86084Z" id="id_114" style="fill: rgb(0, 0, 0);"></path></svg>