<svg width="48" height="48" viewBox="0 0 48 48" fill="none" xmlns="http://www.w3.org/2000/svg">
<path d="M41.714 40.829C40.8796 40.8283 40.0571 40.6305 39.3136 40.2519C38.57 39.8733 37.9264 39.3244 37.435 38.65L32.77 32.236C32.4911 31.8537 32.126 31.5425 31.7043 31.3278C31.2826 31.113 30.8162 31.0007 30.343 31H17.657C17.1838 31.0007 16.7174 31.113 16.2957 31.3278C15.874 31.5425 15.5089 31.8537 15.23 32.236L10.565 38.65C9.87183 39.6031 8.88013 40.2974 7.74735 40.6225C6.61457 40.9477 5.40562 40.8851 4.31246 40.4448C3.2193 40.0044 2.30457 39.2115 1.7135 38.1919C1.12244 37.1723 0.888909 35.9845 1.05 34.817L3.2 19.224C3.63918 16.1175 5.1827 13.2732 7.54789 11.212C9.91309 9.15072 12.9417 8.01046 16.079 8H31.921C35.0583 8.01046 38.0869 9.15072 40.4521 11.212C42.8173 13.2732 44.3608 16.1175 44.8 19.224L46.95 34.817C47.0531 35.5652 46.9947 36.3269 46.7789 37.0507C46.5631 37.7745 46.1947 38.4437 45.6987 39.0133C45.2026 39.5829 44.5903 40.0396 43.903 40.3528C43.2157 40.666 42.4693 40.8284 41.714 40.829V40.829Z" fill="#ffffff" id="id_101"></path>
<path d="M26.5 19V20C26.5 20.663 26.7634 21.2989 27.2322 21.7678C27.7011 22.2366 28.337 22.5 29 22.5C29.663 22.5 30.2989 22.2366 30.7678 21.7678C31.2366 21.2989 31.5 20.663 31.5 20V19H26.5Z" fill="#c3cdcf" id="id_102"></path>
<path d="M35.5 19V20C35.5 20.663 35.7634 21.2989 36.2322 21.7678C36.7011 22.2366 37.337 22.5 38 22.5C38.663 22.5 39.2989 22.2366 39.7678 21.7678C40.2366 21.2989 40.5 20.663 40.5 20V19H35.5Z" fill="#c3cdcf" id="id_103"></path>
<path d="M31 14.5V15.5C31 16.163 31.2634 16.7989 31.7322 17.2678C32.2011 17.7366 32.837 18 33.5 18C34.163 18 34.7989 17.7366 35.2678 17.2678C35.7366 16.7989 36 16.163 36 15.5V14.5H31Z" fill="#c3cdcf" id="id_104"></path>
<path d="M33.5 17C34.8807 17 36 15.8807 36 14.5C36 13.1193 34.8807 12 33.5 12C32.1193 12 31 13.1193 31 14.5C31 15.8807 32.1193 17 33.5 17Z" fill="#FAC100" id="id_105"></path>
<path d="M31 23.5V24.5C31 25.163 31.2634 25.7989 31.7322 26.2678C32.2011 26.7366 32.837 27 33.5 27C34.163 27 34.7989 26.7366 35.2678 26.2678C35.7366 25.7989 36 25.163 36 24.5V23.5H31Z" fill="#c3cdcf" id="id_106"></path>
<path d="M33.5 26C34.8807 26 36 24.8807 36 23.5C36 22.1193 34.8807 21 33.5 21C32.1193 21 31 22.1193 31 23.5C31 24.8807 32.1193 26 33.5 26Z" fill="#009AE0" id="id_107"></path>
<path d="M29 21.5C30.3807 21.5 31.5 20.3807 31.5 19C31.5 17.6193 30.3807 16.5 29 16.5C27.6193 16.5 26.5 17.6193 26.5 19C26.5 20.3807 27.6193 21.5 29 21.5Z" fill="#FD3730" id="id_108"></path>
<path d="M38 21.5C39.3807 21.5 40.5 20.3807 40.5 19C40.5 17.6193 39.3807 16.5 38 16.5C36.6193 16.5 35.5 17.6193 35.5 19C35.5 20.3807 36.6193 21.5 38 21.5Z" fill="#00CF66" id="id_109"></path>
<path d="M8 19V20.5C8 21.163 8.26339 21.7989 8.73223 22.2678C9.20107 22.7366 9.83696 23 10.5 23H12V24.5C12 25.163 12.2634 25.7989 12.7322 26.2678C13.2011 26.7366 13.837 27 14.5 27C15.163 27 15.7989 26.7366 16.2678 26.2678C16.7366 25.7989 17 25.163 17 24.5V23H18.5C19.163 23 19.7989 22.7366 20.2678 22.2678C20.7366 21.7989 21 21.163 21 20.5V19H8Z" fill="#c3cdcf" id="id_110"></path>
<path d="M18.5 16.5H17V15C17 14.337 16.7366 13.7011 16.2678 13.2322C15.7989 12.7634 15.163 12.5 14.5 12.5C13.837 12.5 13.2011 12.7634 12.7322 13.2322C12.2634 13.7011 12 14.337 12 15V16.5H10.5C9.83696 16.5 9.20107 16.7634 8.73223 17.2322C8.26339 17.7011 8 18.337 8 19C8 19.663 8.26339 20.2989 8.73223 20.7678C9.20107 21.2366 9.83696 21.5 10.5 21.5H12V23C12 23.663 12.2634 24.2989 12.7322 24.7678C13.2011 25.2366 13.837 25.5 14.5 25.5C15.163 25.5 15.7989 25.2366 16.2678 24.7678C16.7366 24.2989 17 23.663 17 23V21.5H18.5C19.163 21.5 19.7989 21.2366 20.2678 20.7678C20.7366 20.2989 21 19.663 21 19C21 18.337 20.7366 17.7011 20.2678 17.2322C19.7989 16.7634 19.163 16.5 18.5 16.5Z" fill="#EAEFF0" id="id_111"></path>
</svg>